<svg height="30" width="30" class="hexa" xmlns="http://www.w3.org/2000/svg" viewBox="0 0 187 213" fill-rule="evenodd" clip-rule="evenodd" shape-rendering="geometricPrecision" text-rendering="geometricPrecision" image-rendering="optimizeQuality"><path class="fil0" d="M98 1c28 17 56 33 85 49 2 2 4 5 4 7v99c0 3-2 6-5 7-28 17-56 33-84 49-3 2-6 2-9 0-28-16-56-33-85-49-2-2-4-4-4-7V57c0-3 2-6 5-7C33 34 61 17 89 1c3-1 6-1 9 0zm-5 17C68 33 42 47 17 62v89c25 15 51 30 76 45 26-15 52-30 77-45V62c-25-15-51-29-77-44z"/></svg>