<svg height="300" width="300" xmlns="http://www.w3.org/2000/svg" viewBox="0 0 65 65"><path d="M58.5.5h-52C3.8.5 1.7 2.7 1.7 5.4v41.9c0 2.7 2.2 4.8 4.8 4.8h19.6v5.3h-2.8c-1.7 0-3.1 1.4-3.1 3.1v3.1c0 .6.4 1 1 1h22.6c.6 0 1-.4 1-1v-3.1c0-1.7-1.4-3.1-3.1-3.1h-2.8v-5.3h18.9c3.1 0 5.6-2.5 5.6-5.6V5.4c0-2.7-2.2-4.9-4.9-4.9zm-52 2h52c1.6 0 2.8 1.3 2.8 2.9v37.1H3.6V5.4c0-1.6 1.3-2.9 2.9-2.9zm36.3 57.9v2.1H22.2v-2.1c0-.6.5-1.1 1.1-1.1h18.4c.6.1 1.1.5 1.1 1.1zm-5.9-3h-8.8v-5.3h8.8v5.3zm20.9-7.3H6.5c-1.6 0-2.8-1.3-2.8-2.8v-2.7h57.7v2c0 1.9-1.6 3.5-3.6 3.5z"/><path d="M8.5 39.2h48c.6 0 1-.4 1-1V7.4c0-.6-.4-1-1-1h-48c-.6 0-1 .4-1 1v30.9c0 .5.4.9 1 .9zm1-30.8h46v28.9h-46V8.4z"/><path d="M50.5 14.7H29.6c-.4 0-.8.3-1 .7l-4.3 14.1c-.2.6.3 1.3 1 1.3h20.9c.4 0 .8-.3 1-.7L51.5 16c.1-.6-.3-1.3-1-1.3zm-5.1 14.2H26.6l3.7-12.1h18.8l-3.7 12.1z"/><path d="M30.3 26.1c.2.3.5.4.8.4H43c.4 0 .8-.3 1-.7l1.7-5.5c.1-.3 0-.6-.2-.9-.2-.3-.5-.4-.8-.4H32.8c-.4 0-.8.3-1 .7l-1.7 5.5c0 .3 0 .7.2.9zm3.2-5h9.8l-1.1 3.5h-9.8l1.1-3.5zM17.8 28.9h-3.3c-.6 0-1 .4-1 1s.4 1 1 1h3.3c.6 0 1-.4 1-1s-.5-1-1-1zM21 21.8h-6.5c-.6 0-1 .4-1 1s.4 1 1 1H21c.6 0 1-.4 1-1s-.4-1-1-1zM22.6 14.7h-8.1c-.6 0-1 .4-1 1s.4 1 1 1h8.1c.6 0 1-.4 1-1s-.4-1-1-1z"/></svg>