<svg height="300" width="300" xmlns="http://www.w3.org/2000/svg" viewBox="0 0 100 100"><path fill="none" d="M85.575 11.495H14.424a2.933 2.933 0 00-2.929 2.93v71.151a2.932 2.932 0 002.929 2.929h71.151a2.933 2.933 0 002.93-2.929V14.425a2.933 2.933 0 00-2.93-2.93z"/><path d="M85.575 5H14.424C9.228 5 5 9.228 5 14.425v71.151C5 90.772 9.228 95 14.424 95h71.151C90.772 95 95 90.772 95 85.576V14.425C95 9.228 90.772 5 85.575 5zm2.93 80.576a2.932 2.932 0 01-2.93 2.929H14.424a2.932 2.932 0 01-2.929-2.929V14.425a2.933 2.933 0 012.929-2.93h71.151a2.933 2.933 0 012.93 2.93v71.151z"/></svg>