<svg xmlns="http://www.w3.org/2000/svg" viewBox="0 0 256.2 30"><path d="M253.2 0c-11.7 0-17.7 6.9-23.1 12.9-5.1 6-9.6 11.1-18.6 11.1s-13.5-5.1-18.6-11.1C187.8 6.9 181.8 0 169.8 0c-11.7 0-17.7 6.9-23.1 12.9-5.1 6-9.6 11.1-18.6 11.1s-13.5-5.1-18.6-11.1C104.1 6.9 98.1 0 86.4 0S68.7 6.9 63.3 12.9c-5.1 6-9.6 11.1-18.6 11.1s-13.5-5.1-18.6-11.1C20.7 6.9 14.7 0 3 0 1.2 0 0 1.2 0 3s1.2 3 3 3c9 0 13.5 5.1 18.6 11.1C27 23.1 33 30 44.7 30s17.7-6.9 23.1-12.9C72.9 11.1 77.4 6 86.4 6s13.5 5.1 18.6 11.1c5.4 6 11.4 12.9 23.1 12.9 11.7 0 17.7-6.9 23.1-12.9 5.1-6 9.6-11.1 18.6-11.1s13.5 5.1 18.6 11.1c5.4 6 11.4 12.9 23.1 12.9 11.7 0 17.7-6.9 23.1-12.9 5.1-6 9.6-11.1 18.6-11.1 1.8 0 3-1.2 3-3s-1.2-3-3-3z"/></svg>