<svg height="300" width="300" xmlns="http://www.w3.org/2000/svg" viewBox="0 0 100 100"><path d="M48.207 58.42l5.531 7.188-5.531 7.189a1 1 0 00.001 1.22l5.53 7.183-5.531 7.19a1 1 0 001.586 1.22l6-7.8a1 1 0 00-.001-1.22l-5.53-7.184 5.531-7.188a1 1 0 000-1.219l-5.531-7.188 5.531-7.189a1 1 0 000-1.219l-5.531-7.19 5.531-7.192a1 1 0 000-1.22l-5.531-7.19 5.531-7.196a1 1 0 000-1.219l-6-7.805a1.001 1.001 0 00-1.586 1.218l5.531 7.197L48.207 26a1 1 0 000 1.219l5.531 7.191-5.531 7.193a1 1 0 000 1.218l5.531 7.19-5.531 7.19a1 1 0 000 1.218z"/></svg>